<?xml version="1.0" encoding="utf-8"?>
<!-- Generator: Adobe Illustrator 27.5.0, SVG Export Plug-In . SVG Version: 6.00 Build 0)  -->
<svg version="1.1" xmlns="http://www.w3.org/2000/svg" xmlns:xlink="http://www.w3.org/1999/xlink" x="0px" y="0px"
	 viewBox="0 0 1000 1000" style="enable-background:new 0 0 1000 1000;" xml:space="preserve">
<g id="background">
	<linearGradient id="SVGID_1_" gradientUnits="userSpaceOnUse" x1="1070" y1="500" x2="-306.28" y2="500">
		<stop  offset="0.014" style="stop-color:#070623"/>
		<stop  offset="0.3417" style="stop-color:#0D0625"/>
		<stop  offset="0.6694" style="stop-color:#19052A"/>
		<stop  offset="0.7354" style="stop-color:#1C052B"/>
		<stop  offset="0.7888" style="stop-color:#26042F"/>
		<stop  offset="0.8379" style="stop-color:#370436"/>
		<stop  offset="0.8843" style="stop-color:#4F033F"/>
		<stop  offset="0.9289" style="stop-color:#6E024B"/>
		<stop  offset="0.9715" style="stop-color:#930059"/>
		<stop  offset="0.9821" style="stop-color:#9E005D"/>
	</linearGradient>
	<polygon style="fill:url(#SVGID_1_);" points="0,1000 0,0 1000,0 1000,1000 	"/>
</g>
<g id="object">
	<g>
		<g>
			<g>
				
					<linearGradient id="SVGID_00000081626046608280683830000005246034600703475346_" gradientUnits="userSpaceOnUse" x1="453.0419" y1="499.9817" x2="546.9678" y2="499.9817">
					<stop  offset="0" style="stop-color:#3DDEED"/>
					<stop  offset="0.9966" style="stop-color:#CB00DD"/>
				</linearGradient>
				<path style="fill:url(#SVGID_00000081626046608280683830000005246034600703475346_);" d="M531.681,546.94
					c-0.067,0-0.129-0.005-0.184-0.014l-77.148-13.604c-0.334-0.059-0.835-0.377-1.029-0.656c-0.194-0.278-0.322-0.855-0.263-1.188
					l13.603-77.148c0.059-0.334,0.377-0.833,0.654-1.028c0.277-0.194,0.852-0.321,1.19-0.265c0.001,0,0.001,0,0.001,0l77.147,13.603
					c0.865,0.153,1.444,0.981,1.292,1.844l-13.603,77.149c-0.059,0.335-0.378,0.834-0.655,1.029
					C532.454,546.824,532.013,546.94,531.681,546.94z M455.745,530.969l75.242,13.267l13.268-75.242l-75.242-13.267L455.745,530.969
					z"/>
			</g>
		</g>
		<g>
			<g>
				
					<linearGradient id="SVGID_00000173151468590828393810000016919539299803227029_" gradientUnits="userSpaceOnUse" x1="446.2371" y1="499.9917" x2="553.7629" y2="499.9917">
					<stop  offset="0" style="stop-color:#3DDEED"/>
					<stop  offset="0.9966" style="stop-color:#CB00DD"/>
				</linearGradient>
				<path style="fill:url(#SVGID_00000173151468590828393810000016919539299803227029_);" d="M530.108,553.745
					c-0.141,0-0.284-0.018-0.424-0.057l-82.246-22.037c-0.862-0.231-1.376-1.121-1.146-1.982l22.038-82.25
					c0.089-0.328,0.461-0.813,0.754-0.983c0.294-0.169,0.9-0.249,1.229-0.163l0.001,0.001l82.248,22.038
					c0.862,0.231,1.376,1.121,1.146,1.982l-22.039,82.25c-0.089,0.328-0.461,0.814-0.755,0.984
					C530.665,553.672,530.389,553.745,530.108,553.745z M449.008,529.421l80.432,21.551l21.552-80.431L470.56,448.99
					L449.008,529.421z M469.652,448.747c0.001,0.001,0.003,0.001,0.004,0.001l-0.005-0.001L469.652,448.747z"/>
			</g>
		</g>
		<g>
			<g>
				
					<linearGradient id="SVGID_00000144314059934183978560000002758099226612817817_" gradientUnits="userSpaceOnUse" x1="439.0357" y1="499.9817" x2="560.936" y2="499.9817">
					<stop  offset="0" style="stop-color:#3DDEED"/>
					<stop  offset="0.9966" style="stop-color:#CB00DD"/>
				</linearGradient>
				<path style="fill:url(#SVGID_00000144314059934183978560000002758099226612817817_);" d="M527.618,560.918
					c-0.199,0-0.39-0.024-0.525-0.073l-86.97-31.654c-0.32-0.116-0.789-0.546-0.932-0.854c-0.186-0.4-0.206-0.848-0.053-1.262
					l31.654-86.97c0.116-0.318,0.544-0.787,0.852-0.931c0.308-0.143,0.945-0.172,1.262-0.056l86.973,31.655
					c0.318,0.116,0.787,0.545,0.93,0.853c0.144,0.308,0.172,0.943,0.055,1.262l-31.655,86.971c-0.116,0.319-0.545,0.788-0.853,0.931
					C528.177,560.873,527.89,560.918,527.618,560.918z M441.854,527.096l85.261,31.032l31.032-85.26l-85.261-31.032L441.854,527.096
					z"/>
			</g>
		</g>
		<g>
			<g>
				
					<linearGradient id="SVGID_00000027566545619357696680000018173985319019849873_" gradientUnits="userSpaceOnUse" x1="431.4721" y1="499.9662" x2="568.4984" y2="499.9662">
					<stop  offset="0" style="stop-color:#3DDEED"/>
					<stop  offset="0.9966" style="stop-color:#CB00DD"/>
				</linearGradient>
				<path style="fill:url(#SVGID_00000027566545619357696680000018173985319019849873_);" d="M524.375,568.48
					c-0.28,0-0.577-0.045-0.756-0.128l-91.176-42.516c-0.84-0.392-1.205-1.394-0.814-2.234l42.516-91.177
					c0.144-0.308,0.632-0.754,0.951-0.87c0.419-0.154,0.877-0.134,1.285,0.056l91.176,42.516c0.307,0.144,0.752,0.629,0.868,0.948
					c0.117,0.319,0.088,0.979-0.056,1.287l-42.515,91.176c-0.144,0.308-0.631,0.754-0.95,0.87
					C524.771,568.457,524.578,568.48,524.375,568.48z M434.321,523.886l89.584,41.774l41.774-89.584l-89.584-41.774L434.321,523.886
					z"/>
			</g>
		</g>
		<g>
			<g>
				
					<linearGradient id="SVGID_00000069394912050820971090000011130266454335692949_" gradientUnits="userSpaceOnUse" x1="423.5965" y1="499.9823" x2="576.4032" y2="499.9823">
					<stop  offset="0" style="stop-color:#3DDEED"/>
					<stop  offset="0.9966" style="stop-color:#CB00DD"/>
				</linearGradient>
				<path style="fill:url(#SVGID_00000069394912050820971090000011130266454335692949_);" d="M520.009,576.386
					c-0.296,0-0.59-0.078-0.854-0.23l-94.7-54.675c-0.819-0.472-1.102-1.523-0.63-2.343l54.676-94.701
					c0.476-0.821,1.53-1.101,2.346-0.627l94.698,54.673c0.82,0.474,1.101,1.526,0.63,2.345l-54.676,94.7
					c-0.228,0.397-0.598,0.681-1.041,0.799C520.309,576.367,520.159,576.386,520.009,576.386z M426.465,519.685l93.239,53.832
					l53.832-93.238l-93.24-53.832L426.465,519.685z M574.264,480.698h0.032H574.264z M479.565,426.024
					C479.565,426.025,479.565,426.025,479.565,426.024C479.565,426.025,479.565,426.025,479.565,426.024z"/>
			</g>
		</g>
		<g>
			<g>
				
					<linearGradient id="SVGID_00000157307473737528614140000013709415826062425241_" gradientUnits="userSpaceOnUse" x1="415.4758" y1="499.9818" x2="584.5222" y2="499.9818">
					<stop  offset="0" style="stop-color:#3DDEED"/>
					<stop  offset="0.9966" style="stop-color:#CB00DD"/>
				</linearGradient>
				<path style="fill:url(#SVGID_00000157307473737528614140000013709415826062425241_);" d="M514.591,584.505
					c-0.358,0-0.707-0.11-1.005-0.32l-97.361-68.172c-0.383-0.268-0.639-0.669-0.721-1.131c-0.081-0.462,0.022-0.928,0.291-1.313
					l68.174-97.363c0.552-0.791,1.646-0.988,2.442-0.432c0.001,0.001,0.001,0.001,0.002,0.001l97.363,68.174
					c0.791,0.556,0.984,1.651,0.431,2.443l-68.176,97.364c-0.27,0.385-0.672,0.641-1.135,0.722
					C514.794,584.497,514.692,584.505,514.591,584.505z M515.053,582.088l0.004,0.003
					C515.055,582.089,515.054,582.089,515.053,582.088z M418.353,514.378l96.043,67.25l67.25-96.043l-96.043-67.25L418.353,514.378z
					 M484.945,417.874C484.945,417.874,484.945,417.874,484.945,417.874l-0.002-0.001L484.945,417.874z"/>
			</g>
		</g>
		<g>
			<g>
				
					<linearGradient id="SVGID_00000151506011552210249640000000120397016691198869_" gradientUnits="userSpaceOnUse" x1="407.1982" y1="499.981" x2="592.8018" y2="499.981">
					<stop  offset="0" style="stop-color:#3DDEED"/>
					<stop  offset="0.9966" style="stop-color:#CB00DD"/>
				</linearGradient>
				<path style="fill:url(#SVGID_00000151506011552210249640000000120397016691198869_);" d="M507.961,592.783
					c-0.407,0-0.816-0.137-1.152-0.418l-98.97-83.046c-0.367-0.309-0.593-0.741-0.634-1.219c-0.042-0.478,0.104-0.944,0.413-1.312
					l83.044-98.967c0.309-0.368,0.743-0.594,1.221-0.635c0.474-0.042,0.942,0.105,1.309,0.414l98.969,83.044
					c0.367,0.309,0.593,0.741,0.634,1.219c0.042,0.478-0.104,0.944-0.413,1.312l-83.044,98.967
					C508.984,592.565,508.474,592.783,507.961,592.783z M410.07,507.849l97.798,82.063l82.063-97.798l-97.799-82.061L410.07,507.849
					z M590.515,492.604h0.032H590.515z M491.545,409.56c0.001,0.001,0.003,0.003,0.004,0.004l-0.003-0.003
					C491.546,409.561,491.545,409.56,491.545,409.56z"/>
			</g>
		</g>
		<g>
			<g>
				
					<linearGradient id="SVGID_00000039099031313426544050000012475027144597187729_" gradientUnits="userSpaceOnUse" x1="398.8614" y1="499.9908" x2="601.1386" y2="499.9908">
					<stop  offset="0" style="stop-color:#3DDEED"/>
					<stop  offset="0.9966" style="stop-color:#CB00DD"/>
				</linearGradient>
				<path style="fill:url(#SVGID_00000039099031313426544050000012475027144597187729_);" d="M500,601.12
					c-0.493,0-0.956-0.192-1.304-0.542l-99.296-99.295c-0.348-0.348-0.539-0.81-0.539-1.302c0-0.492,0.191-0.954,0.539-1.302
					l99.298-99.297c0.691-0.694,1.908-0.696,2.603,0l99.298,99.297c0.348,0.348,0.539,0.81,0.539,1.302
					c0,0.492-0.191,0.954-0.539,1.302l-99.298,99.297C500.956,600.928,500.493,601.12,500,601.12z M401.72,499.982l98.28,98.28
					l98.28-98.28L500,401.702L401.72,499.982z M598.788,500.49h0.032H598.788z"/>
			</g>
		</g>
		<g>
			<g>
				
					<linearGradient id="SVGID_00000085941165820768764890000017269232156600671670_" gradientUnits="userSpaceOnUse" x1="390.5901" y1="499.982" x2="609.41" y2="499.982">
					<stop  offset="0" style="stop-color:#3DDEED"/>
					<stop  offset="0.9966" style="stop-color:#CB00DD"/>
				</linearGradient>
				<path style="fill:url(#SVGID_00000085941165820768764890000017269232156600671670_);" d="M490.596,609.393
					c-0.055,0-0.112-0.003-0.169-0.008c-0.502-0.044-0.958-0.281-1.282-0.668l-98.114-116.928c-0.67-0.8-0.564-1.994,0.234-2.663
					l116.927-98.114c0.389-0.325,0.889-0.478,1.382-0.435c0.502,0.044,0.957,0.281,1.281,0.668l98.115,116.928
					c0.669,0.797,0.565,1.991-0.232,2.66l-116.929,98.116C491.465,609.239,491.04,609.393,490.596,609.393z M393.423,490.657
					l97.252,115.901l115.901-97.253l-97.252-115.901L393.423,490.657z M607.008,509.819h0.032H607.008z M508.892,392.89
					c0.001,0.001,0.002,0.002,0.003,0.003l-0.002-0.002C508.893,392.891,508.892,392.891,508.892,392.89z"/>
			</g>
		</g>
		<g>
			<g>
				
					<linearGradient id="SVGID_00000106829546833704277940000017206569981574622089_" gradientUnits="userSpaceOnUse" x1="382.5214" y1="499.9816" x2="617.4782" y2="499.9816">
					<stop  offset="0" style="stop-color:#3DDEED"/>
					<stop  offset="0.9966" style="stop-color:#CB00DD"/>
				</linearGradient>
				<path style="fill:url(#SVGID_00000106829546833704277940000017206569981574622089_);" d="M479.633,617.46
					c-0.113,0-0.228-0.01-0.343-0.03c-0.51-0.09-0.956-0.374-1.253-0.799l-95.163-135.907c-0.297-0.424-0.412-0.94-0.322-1.451
					c0.091-0.511,0.374-0.957,0.799-1.254l135.908-95.163c0.424-0.298,0.939-0.412,1.452-0.322c0.511,0.09,0.957,0.373,1.254,0.799
					l95.163,135.907c0.298,0.425,0.412,0.942,0.321,1.453c-0.091,0.511-0.375,0.956-0.801,1.254l-135.904,95.162
					C480.413,617.339,480.028,617.46,479.633,617.46z M385.324,479.761l94.456,134.896l134.896-94.455L520.22,385.306
					L385.324,479.761z M615.03,520.708h0.032H615.03z M519.866,384.8c0,0.001,0,0.001,0.001,0.001L519.866,384.8L519.866,384.8z"/>
			</g>
		</g>
		<g>
			<g>
				
					<linearGradient id="SVGID_00000160894913579335063410000014393209664203412149_" gradientUnits="userSpaceOnUse" x1="374.8267" y1="499.9814" x2="625.1733" y2="499.9814">
					<stop  offset="0" style="stop-color:#3DDEED"/>
					<stop  offset="0.9966" style="stop-color:#CB00DD"/>
				</linearGradient>
				<path style="fill:url(#SVGID_00000160894913579335063410000014393209664203412149_);" d="M466.999,625.156
					c-0.174,0-0.349-0.023-0.521-0.069c-0.517-0.138-0.948-0.469-1.215-0.932l-90.169-156.178c-0.552-0.957-0.222-2.182,0.733-2.733
					l156.177-90.169c0.463-0.267,1.006-0.338,1.518-0.2c0.517,0.138,0.948,0.469,1.214,0.932l90.17,156.178
					c0.551,0.956,0.222,2.182-0.732,2.733l-156.178,90.17C467.688,625.066,467.346,625.156,466.999,625.156z M377.591,467.182
					l89.61,155.208l155.209-89.61l-89.61-155.208L377.591,467.182z M622.688,533.265h0.032H622.688z M532.52,377.088
					c0,0,0,0,0,0.001V377.088L532.52,377.088z M532.519,377.087L532.519,377.087L532.519,377.087z"/>
			</g>
		</g>
		<g>
			<g>
				
					<linearGradient id="SVGID_00000082336294785588526480000005593501650132552892_" gradientUnits="userSpaceOnUse" x1="367.6896" y1="499.9816" x2="632.3109" y2="499.9816">
					<stop  offset="0" style="stop-color:#3DDEED"/>
					<stop  offset="0.9966" style="stop-color:#CB00DD"/>
				</linearGradient>
				<path style="fill:url(#SVGID_00000082336294785588526480000005593501650132552892_);" d="M452.595,632.294
					c-0.239,0-0.478-0.042-0.708-0.126c-0.517-0.188-0.931-0.567-1.164-1.068l-82.841-177.654c-0.48-1.031-0.032-2.261,0.996-2.741
					l177.656-82.842c0.502-0.234,1.063-0.257,1.578-0.069c0.519,0.189,0.931,0.569,1.164,1.069l82.841,177.654
					c0.48,1.032,0.033,2.261-0.998,2.741L453.466,632.1C453.188,632.229,452.892,632.294,452.595,632.294z M370.412,452.815
					l82.422,176.754l176.754-82.422l-82.422-176.754L370.412,452.815z M629.797,547.597h0.032H629.797z M546.955,369.943
					c0.001,0.002,0.002,0.003,0.002,0.005l-0.001-0.004C546.955,369.943,546.955,369.943,546.955,369.943z"/>
			</g>
		</g>
		<g>
			<g>
				
					<linearGradient id="SVGID_00000049224048612100250080000007979411438469958544_" gradientUnits="userSpaceOnUse" x1="361.3233" y1="499.9818" x2="638.6753" y2="499.9818">
					<stop  offset="0" style="stop-color:#3DDEED"/>
					<stop  offset="0.9966" style="stop-color:#CB00DD"/>
				</linearGradient>
				<path style="fill:url(#SVGID_00000049224048612100250080000007979411438469958544_);" d="M436.327,638.659
					c-0.307,0-0.613-0.067-0.899-0.201c-0.516-0.241-0.908-0.668-1.102-1.204l-72.873-200.215c-0.194-0.534-0.17-1.112,0.07-1.628
					c0.241-0.517,0.668-0.909,1.204-1.103l200.216-72.873c0.534-0.194,1.112-0.17,1.629,0.071c0.517,0.24,0.908,0.668,1.102,1.203
					l72.873,200.216c0.401,1.104-0.17,2.328-1.273,2.731l-200.217,72.873C436.819,638.615,436.573,638.659,436.327,638.659z
					 M364.006,436.566l72.578,199.41l199.41-72.58l-72.578-199.41L364.006,436.566z M636.141,563.8h0.032H636.141z M563.268,363.583
					c0,0.001,0.001,0.003,0.001,0.005L563.268,363.583C563.268,363.584,563.268,363.584,563.268,363.583z"/>
			</g>
		</g>
		<g>
			<g>
				
					<linearGradient id="SVGID_00000089566008723875323200000012765376888377793666_" gradientUnits="userSpaceOnUse" x1="355.973" y1="499.981" x2="644.0267" y2="499.981">
					<stop  offset="0" style="stop-color:#3DDEED"/>
					<stop  offset="0.9966" style="stop-color:#CB00DD"/>
				</linearGradient>
				<path style="fill:url(#SVGID_00000089566008723875323200000012765376888377793666_);" d="M418.12,644.008
					c-0.972,0-1.866-0.65-2.13-1.634l-59.942-223.703c-0.314-1.176,0.387-2.387,1.56-2.701l223.702-59.941
					c0.57-0.153,1.163-0.074,1.673,0.22c0.51,0.294,0.876,0.77,1.028,1.339l59.942,223.702c0.313,1.175-0.386,2.386-1.56,2.701
					L418.69,643.932C418.499,643.984,418.308,644.008,418.12,644.008z M358.613,418.352l59.757,223.016l223.017-59.757
					l-59.758-223.016L358.613,418.352z M641.478,581.953h0.032H641.478z"/>
			</g>
		</g>
		<g>
			<g>
				
					<linearGradient id="SVGID_00000082368332566280024540000009784520647513368497_" gradientUnits="userSpaceOnUse" x1="351.9041" y1="499.9812" x2="648.0961" y2="499.9812">
					<stop  offset="0" style="stop-color:#3DDEED"/>
					<stop  offset="0.9966" style="stop-color:#CB00DD"/>
				</linearGradient>
				<path style="fill:url(#SVGID_00000082368332566280024540000009784520647513368497_);" d="M397.901,648.077
					c-1.087,0-2.054-0.781-2.249-1.888l-43.713-247.908c-0.219-1.24,0.611-2.428,1.852-2.647L601.7,351.921
					c1.244-0.221,2.428,0.613,2.648,1.853v0.001l43.713,247.907c0.106,0.601-0.028,1.208-0.379,1.708
					c-0.35,0.501-0.875,0.834-1.477,0.94l-247.906,43.712C398.166,648.066,398.033,648.077,397.901,648.077z M354.508,398.107
					l43.618,247.367l247.366-43.618L601.874,354.49L354.508,398.107z"/>
			</g>
		</g>
		<g>
			<g>
				
					<linearGradient id="SVGID_00000140709940416052677100000014239204274541712056_" gradientUnits="userSpaceOnUse" x1="349.4132" y1="499.9817" x2="650.5867" y2="499.9817">
					<stop  offset="0" style="stop-color:#3DDEED"/>
					<stop  offset="0.9966" style="stop-color:#CB00DD"/>
				</linearGradient>
				<path style="fill:url(#SVGID_00000140709940416052677100000014239204274541712056_);" d="M375.628,650.569
					c-0.556,0-1.089-0.193-1.52-0.556c-0.486-0.407-0.784-0.98-0.839-1.611l-23.847-272.58c-0.114-1.304,0.853-2.457,2.157-2.571
					l272.581-23.848c0.628-0.053,1.245,0.139,1.732,0.546c0.486,0.408,0.784,0.98,0.839,1.612l23.847,272.58
					c0.114,1.304-0.853,2.457-2.157,2.571L375.84,650.56C375.77,650.566,375.699,650.569,375.628,650.569z M624.197,351.97
					l-272.395,23.832l24.018,272.377l272.379-24.018L624.197,351.97z"/>
			</g>
		</g>
		<g>
			<g>
				
					<linearGradient id="SVGID_00000112590521958877648760000005472536694693708672_" gradientUnits="userSpaceOnUse" x1="348.8245" y1="499.9814" x2="651.1754" y2="499.9814">
					<stop  offset="0" style="stop-color:#3DDEED"/>
					<stop  offset="0.9966" style="stop-color:#CB00DD"/>
				</linearGradient>
				<path style="fill:url(#SVGID_00000112590521958877648760000005472536694693708672_);" d="M648.707,651.157H351.292
					c-1.36,0-2.467-1.107-2.467-2.468V351.274c0-1.361,1.107-2.468,2.467-2.468h297.415c1.361,0,2.469,1.107,2.469,2.468v297.415
					C651.175,650.05,650.068,651.157,648.707,651.157z M351.292,351.366l0.093,297.323l297.322-0.092l-0.091-297.231H351.292z"/>
			</g>
		</g>
		<g>
			<g>
				
					<linearGradient id="SVGID_00000056420090180484027480000008432092911318227117_" gradientUnits="userSpaceOnUse" x1="322.3176" y1="499.9817" x2="677.6824" y2="499.9817">
					<stop  offset="0" style="stop-color:#3DDEED"/>
					<stop  offset="0.9966" style="stop-color:#CB00DD"/>
				</linearGradient>
				<path style="fill:url(#SVGID_00000056420090180484027480000008432092911318227117_);" d="M646.937,677.664
					c-0.075,0-0.15-0.003-0.226-0.01l-322.045-28.175c-1.413-0.124-2.461-1.373-2.338-2.785l28.175-322.047
					c0.124-1.413,1.38-2.461,2.786-2.337l322.046,28.175c1.412,0.124,2.461,1.373,2.338,2.785c0,0.001,0,0.001,0,0.001
					l-28.175,322.046C649.379,676.654,648.254,677.664,646.937,677.664z M353.066,324.86l-28.189,322.057l322.057,28.187
					l28.189-322.057v0.001c0-0.007-0.005-0.012-0.011-0.013L353.066,324.86z M676.398,353.159h0.032H676.398z"/>
			</g>
		</g>
		<g>
			<g>
				
					<linearGradient id="SVGID_00000013162144931330958990000006594891792464478344_" gradientUnits="userSpaceOnUse" x1="293.7824" y1="499.9812" x2="706.2175" y2="499.9812">
					<stop  offset="0" style="stop-color:#3DDEED"/>
					<stop  offset="0.9966" style="stop-color:#CB00DD"/>
				</linearGradient>
				<path style="fill:url(#SVGID_00000013162144931330958990000006594891792464478344_);" d="M642.522,706.2
					c-0.157,0-0.315-0.014-0.472-0.042L296,645.14c-0.706-0.124-1.321-0.516-1.733-1.104c-0.41-0.587-0.568-1.299-0.443-2.005
					l61.017-346.049c0.256-1.457,1.651-2.438,3.109-2.177L704,354.823c0.706,0.124,1.321,0.517,1.733,1.104
					c0.411,0.587,0.568,1.299,0.444,2.005l-61.018,346.05c-0.124,0.705-0.515,1.32-1.102,1.732
					C643.599,706.033,643.067,706.2,642.522,706.2z M357.506,296.326l-61.161,346.15l346.149,61.161l61.161-346.15v-0.001
					c0.01-0.057-0.043-0.132-0.1-0.142L357.506,296.326z"/>
			</g>
		</g>
		<g>
			<g>
				
					<linearGradient id="SVGID_00000005965192852873459320000007084602251515978687_" gradientUnits="userSpaceOnUse" x1="263.3017" y1="499.982" x2="736.6983" y2="499.982">
					<stop  offset="0" style="stop-color:#3DDEED"/>
					<stop  offset="0.9966" style="stop-color:#CB00DD"/>
				</linearGradient>
				<path style="fill:url(#SVGID_00000005965192852873459320000007084602251515978687_);" d="M635.042,736.68
					c-0.244,0-0.489-0.032-0.731-0.097l-368.929-98.854c-0.724-0.194-1.329-0.658-1.704-1.307c-0.375-0.649-0.473-1.405-0.28-2.129
					l98.854-368.929c0.194-0.723,0.658-1.328,1.307-1.703c0.65-0.375,1.41-0.473,2.128-0.281l368.931,98.855
					c0.724,0.194,1.329,0.658,1.704,1.307c0.375,0.649,0.473,1.405,0.28,2.129l-98.854,368.929
					c-0.194,0.724-0.659,1.329-1.307,1.703C636.007,736.553,635.528,736.68,635.042,736.68z M364.98,265.847
					c-0.105,0-0.228,0.081-0.254,0.178l-98.854,368.931c-0.031,0.112,0.061,0.271,0.173,0.301l368.93,98.854
					c0.116,0.026,0.27-0.063,0.299-0.174l98.854-368.929c0.031-0.112-0.061-0.271-0.173-0.301l-368.93-98.854
					C365.011,265.849,364.996,265.847,364.98,265.847z"/>
			</g>
		</g>
		<g>
			<g>
				
					<linearGradient id="SVGID_00000006666243925752349400000012825026937076370344_" gradientUnits="userSpaceOnUse" x1="231.0062" y1="499.9806" x2="768.9939" y2="499.9806">
					<stop  offset="0" style="stop-color:#3DDEED"/>
					<stop  offset="0.9966" style="stop-color:#CB00DD"/>
				</linearGradient>
				<path style="fill:url(#SVGID_00000006666243925752349400000012825026937076370344_);" d="M624.059,768.975
					c-0.332,0-0.67-0.057-1-0.177L232.94,626.806c-1.522-0.554-2.31-2.243-1.756-3.766l141.992-390.12
					c0.268-0.737,0.808-1.326,1.52-1.658c0.709-0.332,1.508-0.366,2.246-0.098L767.06,373.157c1.523,0.554,2.31,2.244,1.756,3.766
					v0.001L626.825,767.042C626.391,768.233,625.26,768.975,624.059,768.975z M375.968,233.555c-0.155,0-0.337,0.104-0.387,0.241
					l-141.992,390.12c-0.071,0.195,0.03,0.413,0.226,0.485l390.119,141.992c0.201,0.073,0.415-0.031,0.485-0.227l141.992-390.119v0
					c0.071-0.196-0.03-0.414-0.226-0.485L376.065,233.571C376.036,233.56,376.003,233.555,375.968,233.555z M767.614,376.485h0.032
					H767.614z"/>
			</g>
		</g>
		<g>
			<g>
				
					<linearGradient id="SVGID_00000127025751005148680810000008132765414265522339_" gradientUnits="userSpaceOnUse" x1="197.0746" y1="499.9813" x2="802.927" y2="499.9813">
					<stop  offset="0" style="stop-color:#3DDEED"/>
					<stop  offset="0.9966" style="stop-color:#CB00DD"/>
				</linearGradient>
				<path style="fill:url(#SVGID_00000127025751005148680810000008132765414265522339_);" d="M609.13,802.907
					c-0.436,0-0.878-0.093-1.299-0.289L198.854,611.909c-1.539-0.718-2.208-2.555-1.492-4.095l190.71-408.978
					c0.717-1.54,2.553-2.211,4.096-1.492l408.978,190.71c0.746,0.347,1.312,0.965,1.594,1.739c0.281,0.774,0.245,1.61-0.103,2.357
					L611.928,801.127C611.406,802.248,610.29,802.907,609.13,802.907z M390.867,199.616c-0.198,0-0.386,0.112-0.475,0.302
					l-190.71,408.976c-0.12,0.261-0.007,0.573,0.254,0.695l408.977,190.709c0.258,0.122,0.573,0.009,0.695-0.253l190.708-408.978
					l0,0c0.104-0.223-0.03-0.59-0.252-0.694l-408.978-190.71C391.016,199.632,390.94,199.616,390.867,199.616z"/>
			</g>
		</g>
		<g>
			<g>
				
					<linearGradient id="SVGID_00000110469599388697358840000008510284873101407150_" gradientUnits="userSpaceOnUse" x1="161.7468" y1="499.9813" x2="838.2556" y2="499.9813">
					<stop  offset="0" style="stop-color:#3DDEED"/>
					<stop  offset="0.9966" style="stop-color:#CB00DD"/>
				</linearGradient>
				<path style="fill:url(#SVGID_00000110469599388697358840000008510284873101407150_);" d="M589.762,838.237
					c-0.562,0-1.115-0.147-1.616-0.436L163.365,592.554c-1.547-0.893-2.078-2.878-1.184-4.425l245.248-424.782
					c0.431-0.749,1.13-1.285,1.966-1.509c0.833-0.225,1.706-0.11,2.457,0.323l424.782,245.248c0.749,0.433,1.285,1.131,1.509,1.967
					c0.224,0.836,0.109,1.709-0.324,2.458L592.571,836.616c-0.431,0.749-1.13,1.285-1.965,1.509
					C590.326,838.2,590.043,838.237,589.762,838.237z M410.284,164.309c-0.25,0-0.526,0.122-0.638,0.317L164.397,589.409
					c-0.187,0.325-0.076,0.741,0.248,0.928l424.783,245.248c0.156,0.091,0.342,0.115,0.514,0.068
					c0.175-0.047,0.321-0.159,0.412-0.315l245.249-424.783c0,0,0,0,0-0.001c0.091-0.157,0.114-0.34,0.068-0.514
					c-0.047-0.176-0.159-0.322-0.317-0.413L410.572,164.378C410.49,164.331,410.389,164.309,410.284,164.309z"/>
			</g>
		</g>
		<g>
			<g>
				
					<linearGradient id="SVGID_00000090294495920882925230000003978313195829064888_" gradientUnits="userSpaceOnUse" x1="125.3244" y1="499.9816" x2="874.6756" y2="499.9816">
					<stop  offset="0" style="stop-color:#3DDEED"/>
					<stop  offset="0.9966" style="stop-color:#CB00DD"/>
				</linearGradient>
				<path style="fill:url(#SVGID_00000090294495920882925230000003978313195829064888_);" d="M565.457,874.657
					c-0.694,0-1.369-0.211-1.949-0.617L126.779,568.238c-0.746-0.522-1.243-1.304-1.402-2.201c-0.158-0.897,0.042-1.802,0.565-2.548
					l305.801-436.729c0.522-0.746,1.304-1.244,2.201-1.402c0.893-0.158,1.801,0.042,2.548,0.565l436.729,305.801
					c0.746,0.522,1.243,1.304,1.401,2.201c0.158,0.897-0.042,1.802-0.565,2.548L568.257,873.202
					c-0.522,0.746-1.304,1.244-2.201,1.403C565.856,874.64,565.656,874.657,565.457,874.657z M434.538,127.867
					c-0.049,0-0.1,0.005-0.149,0.013c-0.224,0.039-0.419,0.163-0.548,0.349L128.039,564.958c-0.131,0.186-0.18,0.411-0.141,0.634
					c0.039,0.223,0.164,0.418,0.35,0.548l436.729,305.802c0.184,0.129,0.409,0.179,0.634,0.14c0.223-0.039,0.418-0.163,0.548-0.349
					l305.801-436.73v0c0.131-0.186,0.18-0.411,0.141-0.634c-0.039-0.224-0.164-0.418-0.35-0.548L435.022,128.021
					C434.878,127.92,434.711,127.867,434.538,127.867z"/>
			</g>
		</g>
		<g>
			<g>
				
					<linearGradient id="SVGID_00000124863258563701872260000011411937103449763230_" gradientUnits="userSpaceOnUse" x1="88.1915" y1="499.9823" x2="911.8077" y2="499.9823">
					<stop  offset="0" style="stop-color:#3DDEED"/>
					<stop  offset="0.9966" style="stop-color:#CB00DD"/>
				</linearGradient>
				<path style="fill:url(#SVGID_00000124863258563701872260000011411937103449763230_);" d="M535.708,911.792
					c-0.844,0-1.651-0.293-2.305-0.842L89.473,538.45c-1.518-1.274-1.716-3.546-0.442-5.064l372.501-443.93
					c1.276-1.518,3.546-1.719,5.065-0.443l443.93,372.501c1.517,1.274,1.715,3.545,0.442,5.064c0,0.001,0,0.001,0,0.001
					L538.468,910.507c-0.617,0.736-1.484,1.187-2.441,1.271C535.92,911.787,535.813,911.792,535.708,911.792z M464.286,90.732
					c-0.295,0-0.589,0.126-0.793,0.369L90.992,535.031c-0.366,0.437-0.31,1.091,0.128,1.457l443.93,372.501
					c0.211,0.177,0.466,0.259,0.754,0.238c0.276-0.024,0.525-0.154,0.703-0.366l372.501-443.929
					c0.366-0.437,0.309-1.091-0.128-1.457L464.95,90.974C464.758,90.812,464.521,90.732,464.286,90.732z M909.989,465.755h0.032
					H909.989z"/>
			</g>
		</g>
		<g>
			<g>
				
					<linearGradient id="SVGID_00000046339787781711464540000006001045050767817655_" gradientUnits="userSpaceOnUse" x1="50.7989" y1="500" x2="949.201" y2="500">
					<stop  offset="0" style="stop-color:#3DDEED"/>
					<stop  offset="0.9966" style="stop-color:#CB00DD"/>
				</linearGradient>
				<path style="fill:url(#SVGID_00000046339787781711464540000006001045050767817655_);" d="M500,949.185
					c-1.013,0-1.967-0.395-2.685-1.112L51.909,502.665c-1.48-1.48-1.48-3.888,0-5.368L497.315,51.891
					c1.434-1.434,3.935-1.434,5.369,0l445.407,445.407c1.48,1.48,1.48,3.888,0,5.368l-0.906-0.905l0.906,0.905L502.685,948.073
					C501.967,948.79,501.013,949.185,500,949.185z M500,53.339c-0.33,0-0.64,0.128-0.874,0.362L53.72,499.107
					c-0.234,0.234-0.362,0.544-0.362,0.874s0.129,0.641,0.362,0.874l445.407,445.407c0.467,0.467,1.28,0.467,1.747,0L946.28,500.856
					c0.234-0.234,0.362-0.544,0.362-0.874s-0.129-0.641-0.362-0.874L500.874,53.701C500.64,53.467,500.33,53.339,500,53.339z"/>
			</g>
		</g>
	</g>
</g>
</svg>
